<svg xmlns="http://www.w3.org/2000/svg" viewBox="0 0 512 512" width="512" height="512">
  <defs>
    <linearGradient id="bg" x1="0%" y1="0%" x2="100%" y2="100%">
      <stop offset="0%" stop-color="#10b981" />
      <stop offset="100%" stop-color="#047857" />
    </linearGradient>
    <linearGradient id="gold" x1="0%" y1="0%" x2="100%" y2="100%">
      <stop offset="0%" stop-color="#fef08a" />
      <stop offset="50%" stop-color="#facc15" />
      <stop offset="100%" stop-color="#ca8a04" />
    </linearGradient>
  </defs>

  <!-- Background rounded squircle -->
  <rect width="512" height="512" rx="112" fill="url(#bg)" />

  <!-- Subtle border highlight -->
  <rect x="8" y="8" width="496" height="496" rx="104" fill="none" stroke="#6ee7b7" stroke-width="8" stroke-opacity="0.3" />

  <!-- Center MoneyCalc Hub 'M' -->
  <path d="M 120 380 L 120 152 L 188 152 L 256 264 L 324 152 L 392 152 L 392 380 L 328 380 L 328 244 L 272 336 L 240 336 L 184 244 L 184 380 Z" fill="#ffffff" />
  
  <!-- Financial gold coin accent in upper right -->
  <circle cx="396" cy="120" r="44" fill="url(#gold)" stroke="#ffffff" stroke-width="8" />
  <!-- Currency symbol in coin -->
  <path d="M 396 98 L 396 142 M 391 106 C 385 106 385 116 396 117 C 407 118 407 132 396 132 C 387 132 386 125 386 125 M 404 109 C 404 109 401 106 396 106" fill="none" stroke="#713f12" stroke-width="4.5" stroke-linecap="round" />
</svg>
